<mxfile host="app.diagrams.net" modified="2023-08-20T03:16:00.245Z" agent="Mozilla/5.0 (X11; Linux x86_64) AppleWebKit/537.36 (KHTML, like Gecko) Chrome/118.0.0.0 Safari/537.36" version="21.6.8" etag="b-Ypq9P1klSMzpdrtLL8" type="github">
  <diagram name="Page-1" id="IN-taA4b9QMNCCkmXoFH">
    <mxGraphModel>
      <root>
        <mxCell id="0" />
        <mxCell id="1" parent="0" />
      </root>
    </mxGraphModel>
  </diagram>
</mxfile>
